# xmcd
#
# Track frame offsets: 
#        150
#        21190
#        43842
#        63815
#        78892
#        98480
#        116665
#        144685
#        161350
#        184137
#        205012
#
# Disc length: 3025 seconds
#
# Revision: 6
# Processed by: cddbd v1.5.2PL0 Copyright (c) Steve Scherf et al.
# Submitted via: ExactAudioCopy v1.0b3
#
DISCID=880bcf0b
DTITLE=The Piano Has Been Drinking… - Der Märchenprinz
DYEAR=1992
DGENRE=Kölsch-Rock
TTITLE0=Alley Cat Blues
TTITLE1=Ich rase op dr Stell
TTITLE2=Der Märchenprinz
TTITLE3=Kopp en dr Sand
TTITLE4=If She Only Knew
TTITLE5=Ei Mädche
TTITLE6=Saddamalaaf
TTITLE7=Frisch uralt verknallt
TTITLE8=Merowinger Hop
TTITLE9=Anfürsich es et Blues
TTITLE10=Ze vill Jepäck
EXTD=YEAR: 1992
EXTT0=
EXTT1=
EXTT2=
EXTT3=
EXTT4=
EXTT5=
EXTT6=
EXTT7=
EXTT8=
EXTT9=
EXTT10=
PLAYORDER=
